+ filenameToUse=/home/horvathandras/vatic/vatic/public/videouploads/DJI_0670_sok_ragas_vaskut_20180608_napos_napraforgo_T3.avi
+ filenameNoDot=DJI_0670_sok_ragas_vaskut_20180608_napos_napraforgo_T3
+ FullUploadPath=/home/horvathandras/vatic/vatic/public/videouploads/DJI_0670_sok_ragas_vaskut_20180608_napos_napraforgo_T3.avi
+ VideoDataDir=/home/horvathandras/vatic/vatic/videos
+ AvailableObjectTypes='PozitívROI NegatívROI Túrás ~Friss ~1-2Hetes ~Régebbi ~Egyéb1 ~Egyéb2 ~Egyéb3 Rágás ~Friss ~1-2Hetes ~Régebbi ~Egyéb1 ~Egyéb2 ~Egyéb3 Törés ~Friss ~1-2Hetes ~Régebbi ~Egyéb1 ~Egyéb2 ~Egyéb3 Taposás ~Friss ~1-2Hetes ~Régebbi ~Egyéb1 ~Egyéb2 ~Egyéb3 EgészségesNövény Egyéb1 Egyéb2 Egyéb3 Egyéb4 Egyéb5 Bizonytalan Művelőút Gktaposás Vetőhiba Széldöntés Jégkár Belvíz Aszály Erózió EgyszikűGyom KétszikűGyom EgyébNövvédelmiPR'
++ dirname /home/horvathandras/vatic/vatic/vatic_publisher.sh
+ cd /home/horvathandras/vatic/vatic
+ touch /home/horvathandras/vatic/vatic/public/videouploads/DJI_0670_sok_ragas_vaskut_20180608_napos_napraforgo_T3.avi
+ chmod 744 /home/horvathandras/vatic/vatic/public/videouploads/DJI_0670_sok_ragas_vaskut_20180608_napos_napraforgo_T3.avi
+ mkdir /home/horvathandras/vatic/vatic/videos/DJI_0670_sok_ragas_vaskut_20180608_napos_napraforgo_T3
+ turkic extract /home/horvathandras/vatic/vatic/public/videouploads/DJI_0670_sok_ragas_vaskut_20180608_napos_napraforgo_T3.avi /home/horvathandras/vatic/vatic/videos/DJI_0670_sok_ragas_vaskut_20180608_napos_napraforgo_T3 --no-resize
ffmpeg version 2.8.14-0ubuntu0.16.04.1 Copyright (c) 2000-2018 the FFmpeg developers
  built with gcc 5.4.0 (Ubuntu 5.4.0-6ubuntu1~16.04.9) 20160609
  configuration: --prefix=/usr --extra-version=0ubuntu0.16.04.1 --build-suffix=-ffmpeg --toolchain=hardened --libdir=/usr/lib/x86_64-linux-gnu --incdir=/usr/include/x86_64-linux-gnu --cc=cc --cxx=g++ --enable-gpl --enable-shared --disable-stripping --disable-decoder=libopenjpeg --disable-decoder=libschroedinger --enable-avresample --enable-avisynth --enable-gnutls --enable-ladspa --enable-libass --enable-libbluray --enable-libbs2b --enable-libcaca --enable-libcdio --enable-libflite --enable-libfontconfig --enable-libfreetype --enable-libfribidi --enable-libgme --enable-libgsm --enable-libmodplug --enable-libmp3lame --enable-libopenjpeg --enable-libopus --enable-libpulse --enable-librtmp --enable-libschroedinger --enable-libshine --enable-libsnappy --enable-libsoxr --enable-libspeex --enable-libssh --enable-libtheora --enable-libtwolame --enable-libvorbis --enable-libvpx --enable-libwavpack --enable-libwebp --enable-libx265 --enable-libxvid --enable-libzvbi --enable-openal --enable-opengl --enable-x11grab --enable-libdc1394 --enable-libiec61883 --enable-libzmq --enable-frei0r --enable-libx264 --enable-libopencv
  libavutil      54. 31.100 / 54. 31.100
  libavcodec     56. 60.100 / 56. 60.100
  libavformat    56. 40.101 / 56. 40.101
  libavdevice    56.  4.100 / 56.  4.100
  libavfilter     5. 40.101 /  5. 40.101
  libavresample   2.  1.  0 /  2.  1.  0
  libswscale      3.  1.101 /  3.  1.101
  libswresample   1.  2.101 /  1.  2.101
  libpostproc    53.  3.100 / 53.  3.100
Input #0, mov,mp4,m4a,3gp,3g2,mj2, from '/home/horvathandras/vatic/vatic/public/videouploads/DJI_0670_sok_ragas_vaskut_20180608_napos_napraforgo_T3.avi':
  Metadata:
    major_brand     : qt  
    minor_version   : 537986816
    compatible_brands: qt  
    creation_time   : 2018-06-08 08:32:44
    location        : +46.073504+18.994268+30.500
    location-{    : +46.073504+18.994268+30.500
    comment         : DE=None, Mode=P, DSW=0001
  Duration: 00:00:14.80, start: 0.000000, bitrate: 101334 kb/s
    Stream #0:0(eng): Video: h264 (High) (avc1 / 0x31637661), yuv420p(tv, bt709), 4096x2160 [SAR 1:1 DAR 256:135], 101079 kb/s, 50 fps, 50 tbr, 50k tbn, 100 tbc (default)
    Metadata:
      creation_time   : 2018-06-08 08:32:44
      handler_name    : DJI.AVC
      encoder         : AVC encoder
    Stream #0:1(eng): Data: none (priv / 0x76697270), 231 kb/s
    Metadata:
      creation_time   : 2018-06-08 08:32:44
      handler_name    : DJI.Meta
Please use -b:a or -b:v, -b is ambiguous
[swscaler @ 0xe4c1a0] deprecated pixel format used, make sure you did set range correctly
Output #0, image2, to '/tmp/pyvision-ffmpeg-913924268/%d.jpg':
  Metadata:
    major_brand     : qt  
    minor_version   : 537986816
    compatible_brands: qt  
    comment         : DE=None, Mode=P, DSW=0001
    location        : +46.073504+18.994268+30.500
    location-{    : +46.073504+18.994268+30.500
    encoder         : Lavf56.40.101
    Stream #0:0(eng): Video: mjpeg, yuvj420p(pc), 4096x2160 [SAR 1:1 DAR 256:135], q=2-31, 10000 kb/s, 50 fps, 50 tbn, 50 tbc (default)
    Metadata:
      creation_time   : 2018-06-08 08:32:44
      handler_name    : DJI.AVC
      encoder         : Lavc56.60.100 mjpeg
Stream mapping:
  Stream #0:0 -> #0:0 (h264 (native) -> mjpeg (native))
Press [q] to stop, [?] for help
frame=    1 fps=0.0 q=16.9 size=N/A time=00:00:00.02 bitrate=N/A    frame=    5 fps=3.5 q=24.8 size=N/A time=00:00:00.10 bitrate=N/A    frame=    9 fps=4.6 q=24.8 size=N/A time=00:00:00.18 bitrate=N/A    frame=   13 fps=5.0 q=24.8 size=N/A time=00:00:00.26 bitrate=N/A    frame=   17 fps=5.3 q=24.8 size=N/A time=00:00:00.34 bitrate=N/A    frame=   21 fps=5.7 q=24.8 size=N/A time=00:00:00.42 bitrate=N/A    frame=   26 fps=6.0 q=24.8 size=N/A time=00:00:00.52 bitrate=N/A    frame=   29 fps=5.9 q=24.8 size=N/A time=00:00:00.58 bitrate=N/A    frame=   33 fps=6.1 q=24.8 size=N/A time=00:00:00.66 bitrate=N/A    frame=   37 fps=6.3 q=24.8 size=N/A time=00:00:00.74 bitrate=N/A    frame=   41 fps=6.4 q=24.8 size=N/A time=00:00:00.82 bitrate=N/A    frame=   45 fps=6.5 q=24.8 size=N/A time=00:00:00.90 bitrate=N/A    frame=   49 fps=6.6 q=24.8 size=N/A time=00:00:00.98 bitrate=N/A    frame=   53 fps=6.7 q=24.8 size=N/A time=00:00:01.06 bitrate=N/A    frame=   58 fps=6.7 q=24.8 size=N/A time=00:00:01.16 bitrate=N/A    frame=   63 fps=6.8 q=24.8 size=N/A time=00:00:01.26 bitrate=N/A    frame=   68 fps=7.0 q=24.8 size=N/A time=00:00:01.36 bitrate=N/A    frame=   73 fps=7.0 q=24.8 size=N/A time=00:00:01.46 bitrate=N/A    frame=   78 fps=7.1 q=24.8 size=N/A time=00:00:01.56 bitrate=N/A    frame=   83 fps=7.2 q=24.8 size=N/A time=00:00:01.66 bitrate=N/A    frame=   88 fps=7.2 q=24.8 size=N/A time=00:00:01.76 bitrate=N/A    frame=   92 fps=7.2 q=24.8 size=N/A time=00:00:01.84 bitrate=N/A    frame=   96 fps=7.2 q=24.8 size=N/A time=00:00:01.92 bitrate=N/A    frame=  101 fps=7.2 q=24.8 size=N/A time=00:00:02.02 bitrate=N/A    frame=  105 fps=7.2 q=24.8 size=N/A time=00:00:02.10 bitrate=N/A    frame=  110 fps=7.3 q=24.8 size=N/A time=00:00:02.20 bitrate=N/A    frame=  114 fps=7.3 q=24.8 size=N/A time=00:00:02.28 bitrate=N/A    frame=  119 fps=7.3 q=24.8 size=N/A time=00:00:02.38 bitrate=N/A    frame=  124 fps=7.3 q=24.8 size=N/A time=00:00:02.48 bitrate=N/A    frame=  128 fps=7.3 q=24.8 size=N/A time=00:00:02.56 bitrate=N/A    frame=  132 fps=7.3 q=24.8 size=N/A time=00:00:02.64 bitrate=N/A    frame=  137 fps=7.4 q=24.8 size=N/A time=00:00:02.74 bitrate=N/A    frame=  142 fps=7.4 q=24.8 size=N/A time=00:00:02.84 bitrate=N/A    frame=  147 fps=7.5 q=24.8 size=N/A time=00:00:02.94 bitrate=N/A    frame=  152 fps=7.5 q=24.8 size=N/A time=00:00:03.04 bitrate=N/A    frame=  157 fps=7.6 q=24.8 size=N/A time=00:00:03.14 bitrate=N/A    frame=  162 fps=7.6 q=24.8 size=N/A time=00:00:03.24 bitrate=N/A    frame=  167 fps=7.6 q=24.8 size=N/A time=00:00:03.34 bitrate=N/A    frame=  172 fps=7.6 q=24.8 size=N/A time=00:00:03.44 bitrate=N/A    frame=  177 fps=7.7 q=24.8 size=N/A time=00:00:03.54 bitrate=N/A    frame=  181 fps=7.7 q=24.8 size=N/A time=00:00:03.62 bitrate=N/A    frame=  186 fps=7.7 q=24.8 size=N/A time=00:00:03.72 bitrate=N/A    frame=  191 fps=7.7 q=24.8 size=N/A time=00:00:03.82 bitrate=N/A    frame=  196 fps=7.8 q=24.8 size=N/A time=00:00:03.92 bitrate=N/A    frame=  201 fps=7.8 q=24.8 size=N/A time=00:00:04.02 bitrate=N/A    frame=  206 fps=7.8 q=24.8 size=N/A time=00:00:04.12 bitrate=N/A    frame=  210 fps=7.8 q=24.8 size=N/A time=00:00:04.20 bitrate=N/A    frame=  215 fps=7.9 q=24.8 size=N/A time=00:00:04.30 bitrate=N/A    frame=  220 fps=7.9 q=24.8 size=N/A time=00:00:04.40 bitrate=N/A    frame=  225 fps=7.9 q=24.8 size=N/A time=00:00:04.50 bitrate=N/A    frame=  230 fps=7.9 q=24.8 size=N/A time=00:00:04.60 bitrate=N/A    frame=  235 fps=8.0 q=24.8 size=N/A time=00:00:04.70 bitrate=N/A    frame=  240 fps=8.0 q=24.8 size=N/A time=00:00:04.80 bitrate=N/A    frame=  245 fps=8.0 q=24.8 size=N/A time=00:00:04.90 bitrate=N/A    frame=  250 fps=8.0 q=24.8 size=N/A time=00:00:05.00 bitrate=N/A    frame=  255 fps=8.0 q=24.8 size=N/A time=00:00:05.10 bitrate=N/A    frame=  259 fps=8.0 q=24.8 size=N/A time=00:00:05.18 bitrate=N/A    frame=  263 fps=8.0 q=24.8 size=N/A time=00:00:05.26 bitrate=N/A    frame=  267 fps=8.0 q=24.8 size=N/A time=00:00:05.34 bitrate=N/A    frame=  271 fps=8.0 q=24.8 size=N/A time=00:00:05.42 bitrate=N/A    frame=  276 fps=8.0 q=24.8 size=N/A time=00:00:05.52 bitrate=N/A    frame=  280 fps=8.0 q=24.8 size=N/A time=00:00:05.60 bitrate=N/A    frame=  284 fps=7.9 q=24.8 size=N/A time=00:00:05.68 bitrate=N/A    frame=  287 fps=7.9 q=24.8 size=N/A time=00:00:05.74 bitrate=N/A    frame=  291 fps=7.9 q=24.8 size=N/A time=00:00:05.82 bitrate=N/A    frame=  295 fps=7.9 q=24.8 size=N/A time=00:00:05.90 bitrate=N/A    frame=  299 fps=7.8 q=24.8 size=N/A time=00:00:05.98 bitrate=N/A    frame=  303 fps=7.8 q=24.8 size=N/A time=00:00:06.06 bitrate=N/A    frame=  307 fps=7.8 q=24.8 size=N/A time=00:00:06.14 bitrate=N/A    frame=  311 fps=7.8 q=24.8 size=N/A time=00:00:06.22 bitrate=N/A    frame=  314 fps=7.8 q=24.8 size=N/A time=00:00:06.28 bitrate=N/A    frame=  317 fps=7.8 q=24.8 size=N/A time=00:00:06.34 bitrate=N/A    frame=  320 fps=7.7 q=24.8 size=N/A time=00:00:06.40 bitrate=N/A    frame=  323 fps=7.7 q=24.8 size=N/A time=00:00:06.46 bitrate=N/A    frame=  326 fps=7.7 q=24.8 size=N/A time=00:00:06.52 bitrate=N/A    frame=  329 fps=7.6 q=24.8 size=N/A time=00:00:06.58 bitrate=N/A    frame=  333 fps=7.6 q=24.8 size=N/A time=00:00:06.66 bitrate=N/A    frame=  337 fps=7.6 q=24.8 size=N/A time=00:00:06.74 bitrate=N/A    frame=  340 fps=7.6 q=24.8 size=N/A time=00:00:06.80 bitrate=N/A    frame=  344 fps=7.6 q=24.8 size=N/A time=00:00:06.88 bitrate=N/A    frame=  348 fps=7.5 q=24.8 size=N/A time=00:00:06.96 bitrate=N/A    frame=  352 fps=7.5 q=24.8 size=N/A time=00:00:07.04 bitrate=N/A    frame=  356 fps=7.5 q=24.8 size=N/A time=00:00:07.12 bitrate=N/A    frame=  360 fps=7.5 q=24.8 size=N/A time=00:00:07.20 bitrate=N/A    frame=  364 fps=7.5 q=24.8 size=N/A time=00:00:07.28 bitrate=N/A    frame=  367 fps=7.5 q=24.8 size=N/A time=00:00:07.34 bitrate=N/A    frame=  371 fps=7.4 q=24.8 size=N/A time=00:00:07.42 bitrate=N/A    frame=  375 fps=7.4 q=24.8 size=N/A time=00:00:07.50 bitrate=N/A    frame=  379 fps=7.4 q=24.8 size=N/A time=00:00:07.58 bitrate=N/A    frame=  383 fps=7.4 q=24.8 size=N/A time=00:00:07.66 bitrate=N/A    frame=  386 fps=7.4 q=24.8 size=N/A time=00:00:07.72 bitrate=N/A    frame=  391 fps=7.4 q=24.8 size=N/A time=00:00:07.82 bitrate=N/A    frame=  394 fps=7.4 q=24.8 size=N/A time=00:00:07.88 bitrate=N/A    frame=  398 fps=7.4 q=24.8 size=N/A time=00:00:07.96 bitrate=N/A    frame=  401 fps=7.3 q=24.8 size=N/A time=00:00:08.02 bitrate=N/A    frame=  405 fps=7.3 q=24.8 size=N/A time=00:00:08.10 bitrate=N/A    frame=  408 fps=7.3 q=24.8 size=N/A time=00:00:08.16 bitrate=N/A    frame=  412 fps=7.3 q=24.8 size=N/A time=00:00:08.24 bitrate=N/A    frame=  416 fps=7.3 q=24.8 size=N/A time=00:00:08.32 bitrate=N/A    frame=  419 fps=7.3 q=24.8 size=N/A time=00:00:08.38 bitrate=N/A    frame=  423 fps=7.2 q=24.8 size=N/A time=00:00:08.46 bitrate=N/A    frame=  427 fps=7.2 q=24.8 size=N/A time=00:00:08.54 bitrate=N/A    frame=  431 fps=7.2 q=24.8 size=N/A time=00:00:08.62 bitrate=N/A    frame=  435 fps=7.2 q=24.8 size=N/A time=00:00:08.70 bitrate=N/A    frame=  439 fps=7.2 q=24.8 size=N/A time=00:00:08.78 bitrate=N/A    frame=  443 fps=7.2 q=24.8 size=N/A time=00:00:08.86 bitrate=N/A    frame=  446 fps=7.2 q=24.8 size=N/A time=00:00:08.92 bitrate=N/A    frame=  449 fps=7.2 q=24.8 size=N/A time=00:00:08.98 bitrate=N/A    frame=  453 fps=7.2 q=24.8 size=N/A time=00:00:09.06 bitrate=N/A    frame=  456 fps=7.2 q=24.8 size=N/A time=00:00:09.12 bitrate=N/A    frame=  460 fps=7.2 q=24.8 size=N/A time=00:00:09.20 bitrate=N/A    frame=  463 fps=7.2 q=24.8 size=N/A time=00:00:09.26 bitrate=N/A    frame=  466 fps=7.2 q=24.8 size=N/A time=00:00:09.32 bitrate=N/A    frame=  469 fps=7.1 q=24.8 size=N/A time=00:00:09.38 bitrate=N/A    frame=  474 fps=7.1 q=24.8 size=N/A time=00:00:09.48 bitrate=N/A    frame=  478 fps=7.1 q=24.8 size=N/A time=00:00:09.56 bitrate=N/A    frame=  482 fps=7.1 q=24.8 size=N/A time=00:00:09.64 bitrate=N/A    frame=  486 fps=7.1 q=24.8 size=N/A time=00:00:09.72 bitrate=N/A    frame=  490 fps=7.1 q=24.8 size=N/A time=00:00:09.80 bitrate=N/A    frame=  494 fps=7.1 q=24.8 size=N/A time=00:00:09.88 bitrate=N/A    frame=  498 fps=7.1 q=24.8 size=N/A time=00:00:09.96 bitrate=N/A    frame=  501 fps=7.1 q=24.8 size=N/A time=00:00:10.02 bitrate=N/A    frame=  504 fps=7.1 q=24.8 size=N/A time=00:00:10.08 bitrate=N/A    frame=  508 fps=7.1 q=24.8 size=N/A time=00:00:10.16 bitrate=N/A    frame=  511 fps=7.0 q=24.8 size=N/A time=00:00:10.22 bitrate=N/A    frame=  514 fps=7.0 q=24.8 size=N/A time=00:00:10.28 bitrate=N/A    frame=  517 fps=7.0 q=24.8 size=N/A time=00:00:10.34 bitrate=N/A    frame=  521 fps=7.0 q=24.8 size=N/A time=00:00:10.42 bitrate=N/A    frame=  525 fps=7.0 q=24.8 size=N/A time=00:00:10.50 bitrate=N/A    frame=  528 fps=7.0 q=24.8 size=N/A time=00:00:10.56 bitrate=N/A    frame=  532 fps=7.0 q=24.8 size=N/A time=00:00:10.64 bitrate=N/A    frame=  536 fps=7.0 q=24.8 size=N/A time=00:00:10.72 bitrate=N/A    frame=  539 fps=7.0 q=24.8 size=N/A time=00:00:10.78 bitrate=N/A    frame=  542 fps=7.0 q=24.8 size=N/A time=00:00:10.84 bitrate=N/A    frame=  546 fps=7.0 q=24.8 size=N/A time=00:00:10.92 bitrate=N/A    frame=  549 fps=6.9 q=24.8 size=N/A time=00:00:10.98 bitrate=N/A    frame=  553 fps=6.9 q=24.8 size=N/A time=00:00:11.06 bitrate=N/A    frame=  557 fps=6.9 q=24.8 size=N/A time=00:00:11.14 bitrate=N/A    frame=  561 fps=6.9 q=24.8 size=N/A time=00:00:11.22 bitrate=N/A    frame=  565 fps=6.9 q=24.8 size=N/A time=00:00:11.30 bitrate=N/A    frame=  569 fps=6.9 q=24.8 size=N/A time=00:00:11.38 bitrate=N/A    frame=  572 fps=6.9 q=24.8 size=N/A time=00:00:11.44 bitrate=N/A    frame=  576 fps=6.9 q=24.8 size=N/A time=00:00:11.52 bitrate=N/A    frame=  580 fps=6.9 q=24.8 size=N/A time=00:00:11.60 bitrate=N/A    frame=  584 fps=6.9 q=24.8 size=N/A time=00:00:11.68 bitrate=N/A    frame=  587 fps=6.9 q=24.8 size=N/A time=00:00:11.74 bitrate=N/A    frame=  591 fps=6.9 q=24.8 size=N/A time=00:00:11.82 bitrate=N/A    frame=  595 fps=6.9 q=24.8 size=N/A time=00:00:11.90 bitrate=N/A    frame=  599 fps=6.9 q=24.8 size=N/A time=00:00:11.98 bitrate=N/A    frame=  603 fps=6.9 q=24.8 size=N/A time=00:00:12.06 bitrate=N/A    frame=  607 fps=6.9 q=24.8 size=N/A time=00:00:12.14 bitrate=N/A    frame=  611 fps=6.9 q=24.8 size=N/A time=00:00:12.22 bitrate=N/A    frame=  615 fps=6.9 q=24.8 size=N/A time=00:00:12.30 bitrate=N/A    frame=  619 fps=6.9 q=24.8 size=N/A time=00:00:12.38 bitrate=N/A    frame=  622 fps=6.9 q=24.8 size=N/A time=00:00:12.44 bitrate=N/A    frame=  626 fps=6.9 q=24.8 size=N/A time=00:00:12.52 bitrate=N/A    frame=  630 fps=6.9 q=24.8 size=N/A time=00:00:12.60 bitrate=N/A    frame=  634 fps=6.9 q=24.8 size=N/A time=00:00:12.68 bitrate=N/A    frame=  638 fps=6.9 q=24.8 size=N/A time=00:00:12.76 bitrate=N/A    frame=  641 fps=6.9 q=24.8 size=N/A time=00:00:12.82 bitrate=N/A    frame=  645 fps=6.9 q=24.8 size=N/A time=00:00:12.90 bitrate=N/A    frame=  648 fps=6.9 q=24.8 size=N/A time=00:00:12.96 bitrate=N/A    frame=  652 fps=6.9 q=24.8 size=N/A time=00:00:13.04 bitrate=N/A    frame=  656 fps=6.9 q=24.8 size=N/A time=00:00:13.12 bitrate=N/A    frame=  659 fps=6.8 q=24.8 size=N/A time=00:00:13.18 bitrate=N/A    frame=  663 fps=6.8 q=24.8 size=N/A time=00:00:13.26 bitrate=N/A    frame=  668 fps=6.9 q=24.8 size=N/A time=00:00:13.36 bitrate=N/A    frame=  671 fps=6.8 q=24.8 size=N/A time=00:00:13.42 bitrate=N/A    frame=  674 fps=6.8 q=24.8 size=N/A time=00:00:13.48 bitrate=N/A    frame=  677 fps=6.8 q=24.8 size=N/A time=00:00:13.54 bitrate=N/A    frame=  682 fps=6.8 q=24.8 size=N/A time=00:00:13.64 bitrate=N/A    frame=  686 fps=6.8 q=24.8 size=N/A time=00:00:13.72 bitrate=N/A    frame=  689 fps=6.8 q=24.8 size=N/A time=00:00:13.78 bitrate=N/A    frame=  693 fps=6.8 q=24.8 size=N/A time=00:00:13.86 bitrate=N/A    frame=  697 fps=6.8 q=24.8 size=N/A time=00:00:13.94 bitrate=N/A    frame=  701 fps=6.8 q=24.8 size=N/A time=00:00:14.02 bitrate=N/A    frame=  705 fps=6.8 q=24.8 size=N/A time=00:00:14.10 bitrate=N/A    frame=  709 fps=6.8 q=24.8 size=N/A time=00:00:14.18 bitrate=N/A    frame=  713 fps=6.8 q=24.8 size=N/A time=00:00:14.26 bitrate=N/A    frame=  717 fps=6.8 q=24.8 size=N/A time=00:00:14.34 bitrate=N/A    frame=  720 fps=6.8 q=24.8 size=N/A time=00:00:14.40 bitrate=N/A    frame=  724 fps=6.8 q=24.8 size=N/A time=00:00:14.48 bitrate=N/A    frame=  728 fps=6.8 q=24.8 size=N/A time=00:00:14.56 bitrate=N/A    frame=  732 fps=6.8 q=24.8 size=N/A time=00:00:14.64 bitrate=N/A    frame=  735 fps=6.8 q=24.8 size=N/A time=00:00:14.70 bitrate=N/A    frame=  739 fps=6.8 q=24.8 size=N/A time=00:00:14.78 bitrate=N/A    frame=  740 fps=6.8 q=24.8 Lsize=N/A time=00:00:14.80 bitrate=N/A    
video:493750kB audio:0kB subtitle:0kB other streams:0kB global headers:0kB muxing overhead: unknown
+ turkic load DJI_0670_sok_ragas_vaskut_20180608_napos_napraforgo_T3 /home/horvathandras/vatic/vatic/videos/DJI_0670_sok_ragas_vaskut_20180608_napos_napraforgo_T3 $'Pozit\303\255vROI' $'Negat\303\255vROI' $'T\303\272r\303\241s' '~Friss' '~1-2Hetes' '~Régebbi' '~Egyéb1' '~Egyéb2' '~Egyéb3' $'R\303\241g\303\241s' '~Friss' '~1-2Hetes' '~Régebbi' '~Egyéb1' '~Egyéb2' '~Egyéb3' $'T\303\266r\303\251s' '~Friss' '~1-2Hetes' '~Régebbi' '~Egyéb1' '~Egyéb2' '~Egyéb3' $'Tapos\303\241s' '~Friss' '~1-2Hetes' '~Régebbi' '~Egyéb1' '~Egyéb2' '~Egyéb3' $'Eg\303\251szs\303\251gesN\303\266v\303\251ny' $'Egy\303\251b1' $'Egy\303\251b2' $'Egy\303\251b3' $'Egy\303\251b4' $'Egy\303\251b5' Bizonytalan $'M\305\261vel\305\221\303\272t' $'Gktapos\303\241s' $'Vet\305\221hiba' $'Sz\303\251ld\303\266nt\303\251s' $'J\303\251gk\303\241r' $'Belv\303\255z' $'Asz\303\241ly' $'Er\303\263zi\303\263' $'Egyszik\305\261Gyom' $'K\303\251tszik\305\261Gyom' $'Egy\303\251bN\303\266vv\303\251delmiPR' --offline --title '$filenameNoDot Video' --length 1000 --description 'vatic annotation'
+ turkic publish --offline
+ mkdir /home/horvathandras/vatic/vatic/public/videothumbnails/DJI_0670_sok_ragas_vaskut_20180608_napos_napraforgo_T3
+ cp /home/horvathandras/vatic/vatic/videos/DJI_0670_sok_ragas_vaskut_20180608_napos_napraforgo_T3/0/0/31.jpg /home/horvathandras/vatic/vatic/public/videothumbnails/DJI_0670_sok_ragas_vaskut_20180608_napos_napraforgo_T3/thumb.jpg
